<svg width="393" height="670" viewBox="0 0 393 670" fill="none" xmlns="http://www.w3.org/2000/svg">
<ellipse cx="202" cy="238.5" rx="239" ry="238.5" fill="#FDFFCB" fill-opacity="0.12"/>
<circle cx="200" cy="240" r="212" fill="#FDFFCB" fill-opacity="0.21"/>
<circle cx="199" cy="242" r="189" fill="#FDFFCB" fill-opacity="0.49"/>
<circle cx="199.619" cy="242.122" r="163" fill="#FDFFCB" fill-opacity="0.53"/>
<path d="M273.86 138.984C291.084 145.019 317.914 159.731 325.347 178.655C334.638 202.311 327.966 246.084 327.31 253.764C326.552 262.626 332.254 302.755 319.432 320.995C306.61 339.234 268.067 350.691 263.051 355.583C253.65 364.754 94.7502 215.565 273.86 138.984Z" fill="#FEFFE4"/>
<path d="M273.86 138.984C291.084 145.019 317.914 159.731 325.347 178.655C334.638 202.311 327.966 246.084 327.31 253.764C326.552 262.626 332.254 302.755 319.432 320.995C306.61 339.234 268.067 350.691 263.051 355.583C253.65 364.754 94.7502 215.565 273.86 138.984Z" fill="#FEFFE4"/>
<path d="M273.86 138.984C291.084 145.019 317.914 159.731 325.347 178.655C334.638 202.311 327.966 246.084 327.31 253.764C326.552 262.626 332.254 302.755 319.432 320.995C306.61 339.234 268.067 350.691 263.051 355.583C253.65 364.754 94.7502 215.565 273.86 138.984Z" fill="#FEFFE4"/>
<path d="M71.491 212.275C66.9928 235.299 57.1947 263.38 63.545 286.401C70.5566 311.82 104.71 331.071 114.049 341.346C123.693 351.956 158.424 380.169 176.578 382.464C195.098 384.805 251.979 357.408 261.845 356.135C268.768 355.243 229.764 296.953 212.685 269.064L94.1979 216.749L79.6692 203.001L71.491 212.275Z" fill="#FEFFE4"/>
<path d="M70.9902 213.502C70.3441 195.166 74.3252 164.577 89.378 150.432C108.194 132.749 151.765 122.242 159.22 119.92C167.824 117.24 203.432 96.6072 225.27 101.575C247.107 106.543 272.006 138.04 278.441 140.84C290.505 146.088 208.622 350.955 70.9902 213.502Z" fill="#FEFFE4"/>
<path d="M70.9902 213.502C70.3441 195.166 74.3252 164.577 89.378 150.432C108.194 132.749 151.765 122.242 159.22 119.92C167.824 117.24 203.432 96.6072 225.27 101.575C247.107 106.543 272.006 138.04 278.441 140.84C290.505 146.088 208.622 350.955 70.9902 213.502Z" fill="#FEFFE4"/>
<path d="M70.9902 213.502C70.3441 195.166 74.3252 164.577 89.378 150.432C108.194 132.749 151.765 122.242 159.22 119.92C167.824 117.24 203.432 96.6072 225.27 101.575C247.107 106.543 272.006 138.04 278.441 140.84C290.505 146.088 208.622 350.955 70.9902 213.502Z" fill="#FEFFE4"/>
<path d="M300.029 173.122C313.884 184.113 333.781 206.095 334.582 225.78C335.584 250.387 315.586 288.348 312.548 295.171C309.043 303.045 301.532 341.595 284.005 354.227C266.478 366.858 227.554 365.119 221.409 368.007C209.892 373.42 111.742 186.409 300.029 173.122Z" fill="#FDFFC8"/>
<path d="M300.029 173.122C313.884 184.113 333.781 206.095 334.582 225.78C335.584 250.387 315.586 288.348 312.548 295.171C309.043 303.045 301.532 341.595 284.005 354.227C266.478 366.858 227.554 365.119 221.409 368.007C209.892 373.42 111.742 186.409 300.029 173.122Z" fill="#FDFFC8"/>
<path d="M300.029 173.122C313.884 184.113 333.781 206.095 334.582 225.78C335.584 250.387 315.586 288.348 312.548 295.171C309.043 303.045 301.532 341.595 284.005 354.227C266.478 366.858 227.554 365.119 221.409 368.007C209.892 373.42 111.742 186.409 300.029 173.122Z" fill="#FDFFC8"/>
<path d="M91.4898 176.018C80.0662 195.671 62.1857 218.273 60.6957 241.365C59.0505 266.863 84.2125 295.325 89.5031 307.695C94.9666 320.47 117.814 357.32 133.708 365.182C149.921 373.201 210.693 366.164 220.13 368.13C226.751 369.509 209.534 303.765 202.746 272.811L110.86 187.319L101.92 170.122L91.4898 176.018Z" fill="#FDFFC8"/>
<path d="M90.6421 176.982C95.868 159.989 109.218 133.246 127.489 125.07C150.326 114.851 193.553 119.055 201.115 119.294C209.843 119.57 248.992 111.977 267.41 123.454C285.828 134.932 298.63 171.67 303.634 176.275C313.014 184.907 173.043 346.5 90.6421 176.982Z" fill="#FDFFC8"/>
<path d="M90.6421 176.982C95.868 159.989 109.218 133.246 127.489 125.07C150.326 114.851 193.553 119.055 201.115 119.294C209.843 119.57 248.992 111.977 267.41 123.454C285.828 134.932 298.63 171.67 303.634 176.275C313.014 184.907 173.043 346.5 90.6421 176.982Z" fill="#FDFFC8"/>
<path d="M90.6421 176.982C95.868 159.989 109.218 133.246 127.489 125.07C150.326 114.851 193.553 119.055 201.115 119.294C209.843 119.57 248.992 111.977 267.41 123.454C285.828 134.932 298.63 171.67 303.634 176.275C313.014 184.907 173.043 346.5 90.6421 176.982Z" fill="#FDFFC8"/>
<circle cx="197.619" cy="245.122" r="122" fill="#FBFFA4"/>
<path d="M131.798 221.44C117.076 236.515 118.657 260.599 138.265 271.706C154.604 280.969 175.612 275.18 183.841 256.873C201.567 217.424 157.608 195.017 131.798 221.44Z" fill="white" stroke="#3B1F0E" stroke-linecap="round" stroke-linejoin="round"/>
<path d="M165.379 242.799C157.27 247.924 147.907 245.199 152.444 239.687C158.2 232.692 163.666 233.717 164.305 231.655C164.86 229.906 160.106 217.557 148.088 211.394C142.368 213.095 136.745 216.363 131.786 221.428C117.064 236.503 118.645 260.587 138.253 271.694C139.919 272.635 141.62 273.407 143.358 274.046C156.402 269.101 168.263 255.341 165.379 242.787V242.799Z" fill="#3B1F0E" stroke="#3B1F0E" stroke-linecap="round" stroke-linejoin="round"/>
<path d="M149.017 211.141C155.943 208.862 158.429 201.023 154.664 195.777" stroke="#3B1F0E" stroke-linecap="round" stroke-linejoin="round"/>
<path d="M158.079 209.995C164.209 209.392 167.998 203.941 166.429 197.984" stroke="#3B1F0E" stroke-linecap="round" stroke-linejoin="round"/>
<path d="M168.649 211.865C175.117 212.082 179.208 207.716 177.482 201.397" stroke="#3B1F0E" stroke-linecap="round" stroke-linejoin="round"/>
<path d="M222.008 221.44C207.287 236.515 208.867 260.599 228.476 271.706C244.814 280.969 265.822 275.18 274.051 256.873C291.777 217.424 247.819 195.017 222.008 221.44Z" fill="white" stroke="#3B1F0E" stroke-linecap="round" stroke-linejoin="round"/>
<path d="M255.59 242.799C247.481 247.924 238.117 245.199 242.654 239.687C248.41 232.692 253.876 233.717 254.516 231.655C255.071 229.906 250.316 217.557 238.298 211.394C232.578 213.095 226.955 216.363 221.996 221.428C207.275 236.503 208.855 260.587 228.464 271.694C230.129 272.635 231.83 273.407 233.568 274.046C246.612 269.101 258.474 255.341 255.59 242.787V242.799Z" fill="#3B1F0E" stroke="#3B1F0E" stroke-linecap="round" stroke-linejoin="round"/>
<path d="M239.227 211.141C246.153 208.862 248.639 201.023 244.874 195.777" stroke="#3B1F0E" stroke-linecap="round" stroke-linejoin="round"/>
<path d="M248.289 209.995C254.419 209.392 258.208 203.941 256.639 197.984" stroke="#3B1F0E" stroke-linecap="round" stroke-linejoin="round"/>
<path d="M258.86 211.865C265.327 212.082 269.418 207.716 267.692 201.397" stroke="#3B1F0E" stroke-linecap="round" stroke-linejoin="round"/>
<path d="M126.995 208.114C130.458 198.261 137.855 189.843 147.207 185.164" stroke="#3B1F0E" stroke-linecap="round" stroke-linejoin="round"/>
<path d="M245.526 179.279C254.419 178.917 263.252 184.621 266.582 192.87" stroke="#3B1F0E" stroke-linecap="round" stroke-linejoin="round"/>
</svg>
