<svg width="393" height="595" viewBox="0 0 393 595" fill="none" xmlns="http://www.w3.org/2000/svg">
<circle cx="201.973" cy="461.129" r="407.027" fill="#FDFFCB" fill-opacity="0.21"/>
<circle cx="200.896" cy="460.052" r="386.568" fill="#FDFFCB" fill-opacity="0.49"/>
<circle cx="201.973" cy="461.129" r="351.034" fill="#FDFFCB" fill-opacity="0.53"/>
<path d="M361.859 239.012C398.951 252.011 456.731 283.692 472.739 324.448C492.749 375.392 478.379 469.662 476.966 486.201C475.335 505.287 487.615 591.708 460.001 630.988C432.388 670.268 349.382 694.941 338.58 705.477C318.333 725.227 -23.8694 403.936 361.859 239.012Z" fill="#FEFFE4"/>
<path d="M361.859 239.012C398.951 252.011 456.731 283.692 472.739 324.448C492.749 375.392 478.379 469.662 476.966 486.201C475.335 505.287 487.615 591.708 460.001 630.988C432.388 670.268 349.382 694.941 338.58 705.477C318.333 725.227 -23.8694 403.936 361.859 239.012Z" fill="#FEFFE4"/>
<path d="M361.859 239.012C398.951 252.011 456.731 283.692 472.739 324.448C492.749 375.392 478.379 469.662 476.966 486.201C475.335 505.287 487.615 591.708 460.001 630.988C432.388 670.268 349.382 694.941 338.58 705.477C318.333 725.227 -23.8694 403.936 361.859 239.012Z" fill="#FEFFE4"/>
<path d="M-73.9599 396.851C-83.6471 446.436 -104.748 506.91 -91.0722 556.488C-75.972 611.23 -2.42033 652.688 17.6921 674.816C38.4616 697.667 113.257 758.424 152.354 763.367C192.237 768.408 314.736 709.406 335.983 706.666C350.892 704.743 266.893 579.213 230.113 519.15L-25.0587 406.486L-56.3473 376.88L-73.9599 396.851Z" fill="#FEFFE4"/>
<path d="M-75.0384 399.493C-76.43 360.007 -67.8563 294.13 -35.4388 263.666C5.08303 225.586 98.916 202.958 114.971 197.957C133.5 192.186 210.186 147.751 257.215 158.45C304.244 169.149 357.864 236.981 371.724 243.01C397.704 254.312 221.363 695.51 -75.0384 399.493Z" fill="#FEFFE4"/>
<path d="M-75.0384 399.493C-76.43 360.007 -67.8563 294.13 -35.4388 263.666C5.08303 225.586 98.916 202.958 114.971 197.957C133.5 192.186 210.186 147.751 257.215 158.45C304.244 169.149 357.864 236.981 371.724 243.01C397.704 254.312 221.363 695.51 -75.0384 399.493Z" fill="#FEFFE4"/>
<path d="M-75.0384 399.493C-76.43 360.007 -67.8563 294.13 -35.4388 263.666C5.08303 225.586 98.916 202.958 114.971 197.957C133.5 192.186 210.186 147.751 257.215 158.45C304.244 169.149 357.864 236.981 371.724 243.01C397.704 254.312 221.363 695.51 -75.0384 399.493Z" fill="#FEFFE4"/>
<path d="M418.216 312.532C448.053 336.202 490.903 383.542 492.628 425.936C494.785 478.928 451.718 560.68 445.177 575.374C437.628 592.332 421.451 675.353 383.706 702.556C345.961 729.759 262.134 726.012 248.901 732.232C224.097 743.89 12.7235 341.148 418.216 312.532Z" fill="#FDFFC8"/>
<path d="M418.216 312.532C448.053 336.202 490.903 383.542 492.628 425.936C494.785 478.928 451.718 560.68 445.177 575.374C437.628 592.332 421.451 675.353 383.706 702.556C345.961 729.759 262.134 726.012 248.901 732.232C224.097 743.89 12.7235 341.148 418.216 312.532Z" fill="#FDFFC8"/>
<path d="M418.216 312.532C448.053 336.202 490.903 383.542 492.628 425.936C494.785 478.928 451.718 560.68 445.177 575.374C437.628 592.332 421.451 675.353 383.706 702.556C345.961 729.759 262.134 726.012 248.901 732.232C224.097 743.89 12.7235 341.148 418.216 312.532Z" fill="#FDFFC8"/>
<path d="M-30.8906 318.768C-55.4924 361.094 -93.9995 409.767 -97.2084 459.5C-100.751 514.41 -46.5631 575.706 -35.1692 602.347C-23.4032 629.858 25.8003 709.218 60.0288 726.148C94.9457 743.418 225.823 728.264 246.146 732.497C260.406 735.466 223.327 593.882 208.709 527.22L10.8253 343.105L-8.42822 306.071L-30.8906 318.768Z" fill="#FDFFC8"/>
<path d="M-32.7163 320.845C-21.462 284.25 7.28938 226.655 46.6358 209.049C95.8188 187.04 188.91 196.094 205.197 196.609C223.993 197.204 308.303 180.852 347.967 205.569C387.631 230.286 415.203 309.404 425.98 319.322C446.18 337.913 144.741 685.915 -32.7163 320.845Z" fill="#FDFFC8"/>
<path d="M-32.7163 320.845C-21.462 284.25 7.28938 226.655 46.6358 209.049C95.8188 187.04 188.91 196.094 205.197 196.609C223.993 197.204 308.303 180.852 347.967 205.569C387.631 230.286 415.203 309.404 425.98 319.322C446.18 337.913 144.741 685.915 -32.7163 320.845Z" fill="#FDFFC8"/>
<path d="M-32.7163 320.845C-21.462 284.25 7.28938 226.655 46.6358 209.049C95.8188 187.04 188.91 196.094 205.197 196.609C223.993 197.204 308.303 180.852 347.967 205.569C387.631 230.286 415.203 309.404 425.98 319.322C446.18 337.913 144.741 685.915 -32.7163 320.845Z" fill="#FDFFC8"/>
<circle cx="197.666" cy="467.589" r="262.737" fill="#FBFFA4"/>
</svg>
